<svg width="40" height="40" viewBox="0 0 40 40" fill="none" xmlns="http://www.w3.org/2000/svg">
    <path d="M27.513 9.25002V11.92C27.513 17.025 22.7014 21.17 16.7884 21.17C10.8753 21.17 6.06372 17.025 6.06372 11.92V9.25002C6.06372 4.15001 10.8753 0 16.7884 0C22.7014 0 27.513 4.15001 27.513 9.25002Z" fill="#073947"/>
    <path d="M19.5907 35.4216C18.9299 34.9441 18.5507 34.2441 18.5507 33.5001C18.5507 32.7561 18.9299 32.0561 19.5907 31.5786L27.8904 25.5846C28.407 25.2116 29.0585 25.0061 29.7275 25.0016C28.1838 23.65 26.2643 22.605 24.1043 22C21.9884 23.144 19.4783 23.8041 16.7884 23.8041C14.1043 23.8041 11.6 23.149 9.48985 22.0095C3.97681 23.5645 0 27.9601 0 33.1331V37.5336C0 38.3451 0.776812 39.0001 1.73913 39.0001H24.5461L19.5907 35.4216Z" fill="#073947"/>
    <path d="M21.0794 33.8881L29.3791 39.8821C29.7588 40.1561 30.335 39.9221 30.335 39.4941V36.6826H38.8342C39.4782 36.6826 40 36.2301 40 35.6721V31.3275C40 30.7695 39.4782 30.317 38.8342 30.317H30.335V27.5055C30.335 27.077 29.7588 26.843 29.3791 27.1175L21.0794 33.1121C20.7994 33.3141 20.7994 33.6861 21.0794 33.8881Z" fill="#073947"/>
</svg>
