<svg width="50" height="40" viewBox="0 0 50 40" fill="none" xmlns="http://www.w3.org/2000/svg">
    <path d="M12.2172 17.442C13.7247 17.442 15.1063 16.7259 16.2241 15.6254C15.0521 13.4744 14.3823 11.0403 14.3823 8.7048C14.3823 6.72416 14.8494 4.85618 15.6713 3.20647C14.6521 2.56715 13.461 2.19257 12.183 2.19257C8.44801 2.19257 5.41992 5.33567 5.41992 9.21246C5.41924 13.0878 8.48158 17.442 12.2172 17.442Z" fill="#073947"/>
    <path d="M16.7665 20.7717C16.1062 20.6259 15.4233 20.545 14.7206 20.545H9.69113C4.33906 20.5457 0 24.9998 0 30.4939L0.0226028 31.6705C0.0226028 33.2054 1.23494 34.4503 2.73015 34.4503H7.68907C7.9329 28.3373 11.5946 23.1255 16.7665 20.7717Z" fill="#073947"/>
    <path d="M26.0577 18.9101C30.6892 18.9101 34.4015 13.511 34.4015 8.7041C34.4008 3.8972 30.646 0 26.0145 0C21.383 0 17.6282 3.8972 17.6282 8.7041C17.6289 13.5117 21.4261 18.9101 26.0577 18.9101Z" fill="#073947"/>
    <path d="M29.1619 22.7587H22.9255C16.2885 22.7587 10.9091 28.2816 10.9091 35.0945L10.9378 36.5534C10.9378 38.4566 12.4413 40 14.2954 40H37.8502C39.7044 40 41.2078 38.4566 41.2078 36.5534L41.179 35.0945C41.1783 28.2816 35.7989 22.7587 29.1619 22.7587Z" fill="#073947"/>
    <path d="M49.5988 16.0542L41.9166 8.15771C41.3816 7.60781 40.5145 7.60781 39.9796 8.15771L39.0111 9.15331C38.4761 9.70322 38.4761 10.5946 39.0111 11.1445L43.7871 16.0542C44.322 16.6041 44.322 17.4955 43.7871 18.0454L39.0111 22.9551C38.4761 23.505 38.4761 24.3964 39.0111 24.9463L39.9796 25.9419C40.5145 26.4918 41.3816 26.4918 41.9166 25.9419L49.5988 18.0461C50.1337 17.4962 50.1337 16.6041 49.5988 16.0542Z" fill="#073947"/>
</svg>
