<svg width="21" height="14" viewBox="0 0 21 14" fill="none" xmlns="http://www.w3.org/2000/svg">
    <path fill-rule="evenodd" clip-rule="evenodd" d="M14 14H19.25V10H21V4H11.655C10.6487 1.58002 8.50497 0 6.125 0C2.74751 0 0 3.14001 0 7C0 10.86 2.74751 14 6.125 14C8.50497 14 10.6575 12.42 11.655 10H14V14ZM17.5 12H15.75V8H10.4475L10.2463 8.67C9.63375 10.66 7.97124 12 6.125 12C3.70999 12 1.75 9.76 1.75 7C1.75 4.23999 3.70999 2 6.125 2C7.97124 2 9.63375 3.34003 10.2463 5.33L10.4475 6H19.25V8H17.5V12ZM6.125 10C4.68123 10 3.5 8.65 3.5 7C3.5 5.35 4.68123 4 6.125 4C7.56877 4 8.75 5.35 8.75 7C8.75 8.65 7.56877 10 6.125 10ZM5.25 7C5.25 6.45 5.64376 6 6.125 6C6.60624 6 7 6.45 7 7C7 7.55 6.60624 8 6.125 8C5.64376 8 5.25 7.55 5.25 7Z" fill="#165061" fill-opacity="0.54"/>
</svg>
